Coordinates
version=1
nRows=5
nColumns=46
inDegrees=yes

Units are S.I. units (second, meters, Newtons, ...)
Angles are in degrees.

endheader
time	pelvis_tilt	pelvis_list	pelvis_rotation	pelvis_tx	pelvis_ty	pelvis_tz	bb_angle	bb_tx	bb_ty	bb_tz	hip_flexion_r	hip_adduction_r	hip_rotation_r	knee_angle_r	knee_angle_r_beta	ankle_angle_r	subtalar_angle_r	mtp_angle_r	crank_angle_r	hip_flexion_l	hip_adduction_l	hip_rotation_l	knee_angle_l	knee_angle_l_beta	ankle_angle_l	subtalar_angle_l	mtp_angle_l	crank_angle_l	lumbar_extension	lumbar_bending	lumbar_rotation	arm_flex_r	arm_add_r	arm_rot_r	elbow_flex_r	pro_sup_r	wrist_flex_r	wrist_dev_r	arm_flex_l	arm_add_l	arm_rot_l	elbow_flex_l	pro_sup_l	wrist_flex_l	wrist_dev_l
      0.00000000	    -15.02613276	     -2.69726747	     -2.53614164	      0.05672451	      1.14945940	     -0.23979595	      0.00000000	      0.50000000	      0.00000000	      0.25000000	     84.14327129	      2.93505793	      4.24078202	     89.72122430	      1.56593077	      6.22247447	     -7.96064907	      0.00000000	      0.00000000	     43.21917821	     -7.36847333	      0.77452973	     59.89938216	      1.04544144	     13.89042266	     -6.76704521	      0.00000000	      0.00000000	    -61.16434811	      0.47819991	      2.81289435	     89.53442128	     -8.30997686	     27.61628384	     54.78137674	     33.43643536	      0.00000000	      0.00000000	     89.28698543	    -12.88932374	     28.58332930	     53.64091420	     36.05010682	      0.00000000	      0.00000000
      0.00500000	    -15.03914458	     -2.66670700	     -2.50257948	      0.05671023	      1.14944117	     -0.23986108	      0.00000000	      0.50000000	      0.00000000	      0.25000000	     84.15182698	      2.89732356	      4.27546412	     89.72318187	      1.56596494	      6.27927014	     -7.96638376	      0.00000000	      0.00000000	     43.22664201	     -7.31651301	      0.77994819	     59.87542294	      1.04502327	     13.89185899	     -6.77850846	      0.00000000	      0.00000000	    -61.14591146	      0.50565804	      2.77288357	     89.53782201	     -8.30340186	     27.51190330	     54.39015953	     35.64948761	      0.00000000	      0.00000000	     89.29521206	    -12.94639160	     28.49737255	     53.36415118	     37.84486363	      0.00000000	      0.00000000
      0.01000000	    -15.03199754	     -2.65355583	     -2.51606476	      0.05672998	      1.14946649	     -0.23982171	      0.00000000	      0.50000000	      0.00000000	      0.25000000	     84.13976342	      2.90970804	      4.28462682	     89.72697700	      1.56603118	      6.30583230	     -7.98288112	      0.00000000	      0.00000000	     43.20889704	     -7.32354506	      0.75021441	     59.86462088	      1.04483474	     13.90039576	     -6.74978662	      0.00000000	      0.00000000	    -61.16598555	      0.48248925	      2.78306392	     89.53724174	     -8.32521850	     27.41231951	     54.26388582	     36.58986604	      0.00000000	      0.00000000	     89.29777415	    -12.91146005	     28.36203318	     53.26063539	     38.52451752	      0.00000000	      0.00000000
      0.01500000	    -14.91671563	     -2.63250062	     -2.47284654	      0.05674673	      1.14963158	     -0.23991131	      0.00000000	      0.50000000	      0.00000000	      0.25000000	     84.08658890	      2.79317408	      4.08910880	     89.79563309	      1.56722945	      5.94697484	     -8.50895059	      0.00000000	      0.00000000	     43.06872439	     -7.24677538	      0.81295486	     59.82717845	      1.04418125	     13.88370076	     -6.81057549	      0.00000000	      0.00000000	    -61.38696670	      0.67733757	      2.68846565	     89.54985314	     -8.03807450	     27.15324666	     54.57279117	     36.87423575	      0.00000000	      0.00000000	     89.26524783	    -13.18116816	     28.01281797	     53.57114808	     38.78169727	      0.00000000	      0.00000000
      0.02000000	    -14.78888784	     -3.10331339	     -2.87173079	      0.05742382	      1.14876529	     -0.23766696	      0.00000000	      0.50000000	      0.00000000	      0.25000000	     84.07576972	      3.45480621	      3.65937086	     89.86910403	      1.56851176	      5.73076068	     -8.51004664	      0.00000000	      0.00000000	     42.88469958	     -7.56004357	      1.05683846	     59.83718964	      1.04435597	     13.50635969	     -6.44133809	      0.00000000	      0.00000000	    -61.46841279	      0.79137972	      3.14698417	     89.54924975	     -7.55755227	     27.36191295	     54.56637695	     36.83726860	      0.00000000	      0.00000000	     89.24508349	    -13.37329678	     27.90616681	     53.26220512	     38.71029317	      0.00000000	      0.00000000
